# xmcd CD database file
#
# Track frame offsets:
#	150
#	15501
#	34776
#	54336
#	66253
#	81881
#	96851
#	113826
#	130823
#	146011
#
# Disc length: 2162 seconds
#
# Revision: 3
# Processed by: cddbd v1.4PL0 Copyright (c) Steve Scherf et al.
# Submitted via: CDex 1.40Release
#
DISCID=8108700a
DTITLE=Kenny Rogers - Love Collection - Disc 2
DYEAR=1900
DGENRE=Country
TTITLE0=Unforgettable
TTITLE1=I Only Have Eyes For You
TTITLE2=She Believes In Me
TTITLE3=Always
TTITLE4=When I Fall In Love
TTITLE5=Crazy
TTITLE6=When A Man Loves A Woman
TTITLE7=You Decorated My Life
TTITLE8=I Can't Help Falling In Love
TTITLE9=The Wind Beneath My Wings
EXTD=ID3G: 2
EXTT0=
EXTT1=
EXTT2=
EXTT3=
EXTT4=
EXTT5=
EXTT6=
EXTT7=
EXTT8=
EXTT9=
PLAYORDER=
